<svg xmlns="http://www.w3.org/2000/svg" viewBox="0 0 640 420" role="img" aria-labelledby="title desc">
  <title id="title">Biceps exercise reference</title>
  <desc id="desc">A clean illustration showing a biceps curl pattern.</desc>
  <defs>
    <linearGradient id="bg" x1="0" x2="1" y1="0" y2="1">
      <stop offset="0" stop-color="#fff7ed"/>
      <stop offset="1" stop-color="#fed7aa"/>
    </linearGradient>
  </defs>
  <rect width="640" height="420" rx="34" fill="url(#bg)"/>
  <circle cx="318" cy="126" r="32" fill="#172033"/>
  <path d="M260 176c32-28 87-28 119 0l-18 122h-83z" fill="#1769ff"/>
  <path d="M265 190c-58 20-75 75-48 121M375 190c58 20 75 75 48 121" fill="none" stroke="#172033" stroke-width="22" stroke-linecap="round"/>
  <rect x="181" y="296" width="74" height="22" rx="11" fill="#172033"/>
  <rect x="385" y="296" width="74" height="22" rx="11" fill="#172033"/>
  <path d="M209 278c-20-42-7-78 28-104M431 278c20-42 7-78-28-104" fill="none" stroke="#1769ff" stroke-width="12" stroke-linecap="round"/>
  <text x="54" y="66" font-family="Arial, sans-serif" font-size="28" font-weight="800" fill="#172033">BICEPS CURL</text>
  <text x="54" y="96" font-family="Arial, sans-serif" font-size="16" fill="#475569">Keep elbows still and control the lowering</text>
</svg>
