<svg xmlns="http://www.w3.org/2000/svg" viewBox="0 0 640 420" role="img" aria-labelledby="title desc">
  <title id="title">Shoulder exercise reference</title>
  <desc id="desc">A clean illustration showing overhead shoulder pressing.</desc>
  <defs>
    <linearGradient id="bg" x1="0" x2="1" y1="0" y2="1">
      <stop offset="0" stop-color="#f5f3ff"/>
      <stop offset="1" stop-color="#e0e7ff"/>
    </linearGradient>
  </defs>
  <rect width="640" height="420" rx="34" fill="url(#bg)"/>
  <circle cx="320" cy="143" r="34" fill="#172033"/>
  <path d="M254 192c34-32 98-32 132 0l-18 118h-96z" fill="#1769ff"/>
  <path d="M250 194l-63-85M390 194l63-85" fill="none" stroke="#172033" stroke-width="22" stroke-linecap="round"/>
  <rect x="135" y="74" width="86" height="22" rx="11" fill="#172033"/>
  <rect x="419" y="74" width="86" height="22" rx="11" fill="#172033"/>
  <path d="M183 134V70M457 134V70" stroke="#1769ff" stroke-width="14" stroke-linecap="round"/>
  <path d="M160 95l23-29 23 29M434 95l23-29 23 29" fill="none" stroke="#1769ff" stroke-width="12" stroke-linecap="round" stroke-linejoin="round"/>
  <text x="54" y="66" font-family="Arial, sans-serif" font-size="28" font-weight="800" fill="#172033">SHOULDER PRESS</text>
  <text x="54" y="96" font-family="Arial, sans-serif" font-size="16" fill="#475569">Brace core and press without shrugging</text>
</svg>
